inDegrees=no
num_controls=7
num_derivatives=13
num_iterations=89
num_multipliers=7
num_parameters=0
num_slacks=7
num_states=26
objective=0.545230
objective_accelerations=0.041642
objective_balance=0.003699
objective_effort=0.040755
objective_height=0.449658
objective_ligament=0.009476
solver_duration=964.371533
status=Solve_Succeeded
success=true
DataType=double
version=3
OpenSimVersion=4.5
endheader
time	/jointset/ground_pelvis/pelvis_tilt/value	/jointset/ground_pelvis/pelvis_tx/value	/jointset/ground_pelvis/pelvis_ty/value	/jointset/hip_r/hip_flexion_r/value	/jointset/hip_r/hip_adduction_r/value	/jointset/hip_r/hip_rotation_r/value	/jointset/back/lumbar_extension/value	/jointset/patellofemoral_r/patellar_flexion_r/value	/jointset/knee_r/knee_flexion_r/value	/jointset/knee_r/knee_adduction_r/value	/jointset/knee_r/knee_rotation_r/value	/jointset/ankle_r/ankle_angle_r/value	/jointset/subtalar_r/subtalar_angle_r/value	/jointset/ground_pelvis/pelvis_tilt/speed	/jointset/ground_pelvis/pelvis_tx/speed	/jointset/ground_pelvis/pelvis_ty/speed	/jointset/hip_r/hip_flexion_r/speed	/jointset/hip_r/hip_adduction_r/speed	/jointset/hip_r/hip_rotation_r/speed	/jointset/back/lumbar_extension/speed	/jointset/patellofemoral_r/patellar_flexion_r/speed	/jointset/knee_r/knee_flexion_r/speed	/jointset/knee_r/knee_adduction_r/speed	/jointset/knee_r/knee_rotation_r/speed	/jointset/ankle_r/ankle_angle_r/speed	/jointset/subtalar_r/subtalar_angle_r/speed	/forceset/tau_hip_flexion_r	/forceset/tau_hip_adduction_r	/forceset/tau_hip_rotation_r	/forceset/tau_knee_flexion_r	/forceset/tau_ankle_angle_r	/forceset/tau_subtalar_angle_r	/forceset/tau_lumbar_extension	lambda_cid13_p0	lambda_cid14_p0	lambda_cid14_p1	lambda_cid14_p2	lambda_cid14_p3	lambda_cid14_p4	lambda_cid14_p5	/jointset/ground_pelvis/pelvis_tilt/accel	/jointset/ground_pelvis/pelvis_tx/accel	/jointset/ground_pelvis/pelvis_ty/accel	/jointset/hip_r/hip_flexion_r/accel	/jointset/hip_r/hip_adduction_r/accel	/jointset/hip_r/hip_rotation_r/accel	/jointset/back/lumbar_extension/accel	/jointset/patellofemoral_r/patellar_flexion_r/accel	/jointset/knee_r/knee_flexion_r/accel	/jointset/knee_r/knee_adduction_r/accel	/jointset/knee_r/knee_rotation_r/accel	/jointset/ankle_r/ankle_angle_r/accel	/jointset/subtalar_r/subtalar_angle_r/accel	gamma_cid13_p0	gamma_cid14_p0	gamma_cid14_p1	gamma_cid14_p2	gamma_cid14_p3	gamma_cid14_p4	gamma_cid14_p5
0.5	-0.2202009281096611	-0.0004387762015637156	0.8404161154137954	0.9013179460693428	-0.2280387075097431	-0.1316841631897788	-0.3370433026617023	0.6980280299552285	0.6980280299555492	0.03611144430444398	0.1744834454239334	0.1854475506237559	0.03741141455225033	-0.5931460394376961	-0.2057484445607376	-0.4052575355023488	1.952761248500337	-0.001721239371489975	0.2671017636479904	-0.5864429356157254	1.673033470383079	1.673033470383058	-0.2776437016478658	-0.0002400626786775379	0.3942233427001548	0.09928490860775337	-0.1527127352312783	-0.02014508767638928	0.009418023259494472	-0.3095710293754733	0.1078362096768106	-0.009437648004719764	0.1867567294012644	-31.44133080295132	-7.532322005338569	-1.299722659316635	-4.036455982351089	-0.9353889368360271	-666.7250243121849	58.5669966004232	0.2808784310590476	0.489846342170023	-0.3531538395372545	-1.227426536066759	-0.03442511533423035	-0.4785636253598846	1.631301176123588	-1.203020328592909	-1.203020328592748	0.4783396815097971	-0.003974976956493885	-0.3915365389230682	-0.09872326680179999	-1.070488154899994e-07	-1.296261050252459e-07	5.742298775665205e-07	-8.454397699381907e-07	2.058806134277231e-08	-2.193302806727884e-07	4.12743991264369e-07
0.51	-0.2261171711290832	-0.002471532924597223	0.836346829999974	0.9207809156252377	-0.2280583489645869	-0.1290367546335693	-0.3428258147529323	0.7146956200837031	0.7146956200836705	0.03336079344296193	0.1744812782033461	0.189369326908453	0.03839819547500872	-0.5900183558977814	-0.2007827324335186	-0.4085074855453479	1.9395634283007	-0.002212790510484161	0.2624036875104179	-0.5699885498734651	1.660244459328858	1.660244459328828	-0.2724355535955701	-0.0002100487595715144	0.3900687262347867	0.09804417024995685	-0.160451585249595	-0.01850701650697584	0.01005845403918256	-0.3118272111564325	0.1051567800961138	-0.009064161924072649	0.1932950458879273	-30.47816927855481	-8.607926426997976	-1.431927378076172	-3.894210834790258	-0.5119994520875498	-670.9572841203842	58.27401755486513	0.3413340733252253	0.5029596243577931	-0.2971464481658201	-1.406359354758598	-0.05742400483305055	-0.4620170084208685	1.663147186767283	-1.352835962353523	-1.352835962354997	0.5497545030196047	0.003853246756688135	-0.4369169434918211	-0.1407997589658295	-8.362983121035805e-08	-4.835649611040906e-08	8.00101273899599e-07	-2.715548039810629e-07	-5.833511318460974e-08	-1.402503390923205e-07	3.976203575585847e-07
0.52	-0.2319996131615307	-0.00445402733108654	0.8322477989134258	0.9401038270605665	-0.2280830867091497	-0.1264356443188328	-0.3484416550040415	0.7312281212079165	0.7312281212075514	0.03066376448919127	0.1744788838560559	0.193247658479867	0.03937175888644971	-0.5863858420431648	-0.1956959812518994	-0.411206670047735	1.924749624387209	-0.002740497315512335	0.2578421153542436	-0.5531085675916045	1.646015669533966	1.646015669533926	-0.2669193201060625	-0.0002854880239668837	0.3855344000434934	0.09664140634426915	-0.1681904352679255	-0.01686894533758341	0.01069888481915095	-0.3140833929373962	0.1024773505154106	-0.008690675843456475	0.1998333623745811	-29.50848904175263	-9.68709948325397	-1.562502947843732	-3.754800337284292	-0.09726747186851019	-675.2499687326205	58.03231381650997	0.3818444939994279	0.5140541530500838	-0.2430007314148511	-1.55062327883745	-0.0416562485410088	-0.4512628290802324	1.716420484043643	-1.490976076726948	-1.490976076726924	0.5399567689521895	-0.0250656136567578	-0.4674784841080953	-0.1311283763800334	-5.127558737007182e-08	7.555864218031761e-08	1.172812188798177e-06	5.889903079035396e-07	-1.846252701587796e-07	-1.83297141470445e-08	4.102139666727132e-07
0.53	-0.2378434028173533	-0.006385078380673708	0.8281245455928274	0.9592709237674739	-0.2281126350238735	-0.1238823532829121	-0.3538865064397121	0.7476113678898365	0.7476113678895765	0.02802042150387981	0.1744768640052943	0.1970790713506896	0.04033141034485331	-0.5822915732925881	-0.19049506745373	-0.4133478182191228	1.908403421476378	-0.003177288662163129	0.252847381351989	-0.5358017801333635	1.630401501228305	1.63040150122832	-0.2616951405900741	-0.0001407231734876105	0.3806938287841367	0.09526095502565686	-0.1756963908334742	-0.01542235902550485	0.01127807653494923	-0.3167119042190447	0.1003365990222601	-0.00837297736821218	0.2061842643843963	-28.53290355088749	-10.60101476598476	-1.690637574028296	-3.613191200547785	0.1936921888896949	-679.6396644764139	57.8274764554315	0.4353058110302202	0.5259339831284569	-0.1852363401917512	-1.71654934094821	-0.04562644781817486	-0.5188771827103803	1.746798788060295	-1.631455194478597	-1.631455194470476	0.5220231101415299	0.03110317606681027	-0.5005382388444564	-0.145355087072723	-2.872610647278007e-08	1.558365044066647e-07	1.398029695377272e-06	1.140790971944648e-06	-2.652601736716624e-07	6.022457567433721e-08	4.280586218576575e-07
0.54	-0.2436438322365806	-0.008263555494293574	0.8239827678944771	0.978266572336524	-0.2281467384260831	-0.1213780692863964	-0.3591564918185309	0.7638315092913019	0.7638315092911463	0.0254309952271721	0.1744756629313693	0.2008604401505198	0.04127648697457659	-0.5777137947242765	-0.1851811940584393	-0.4149115455981566	1.890459996815852	-0.003651514812453759	0.2480407074732424	-0.5181353562212849	1.613394613442928	1.613394613442996	-0.2561359783853091	-0.0001217326563467328	0.3755255858449807	0.09372644060820844	-0.1832023463990285	-0.01397577271343179	0.01185726825075021	-0.3193404155006934	0.09819584752910901	-0.008055278892973295	0.2125351663942071	-27.55236476754631	-11.52111139971579	-1.820108540142687	-3.471077624347986	0.4949840405388001	-684.1238507260615	57.62185907783641	0.4785464575464025	0.5366460724743676	-0.1275165729440719	-1.870067628776663	-0.04914320926897555	-0.413650804378637	1.788347774811168	-1.76951997267023	-1.769519972670364	0.6069533067075223	-0.05022048032442808	-0.5330128200679166	-0.1619409961472594	-1.702444840603556e-08	1.878348271575274e-07	1.460063005517789e-06	1.351002034116356e-06	-2.953828818656741e-07	9.079909046502686e-08	4.517129450358448e-07
0.55	-0.2493961702337839	-0.01008841895787505	0.8198282401522412	0.997075106395891	-0.2281855403316526	-0.1189219563174331	-0.3642480926296177	0.7798747946430203	0.7798747946429331	0.02289765977455419	0.1744745831755191	0.2045885816274343	0.04220577291058838	-0.5726774172857949	-0.1797805711737893	-0.4158964823219794	1.870996950570299	-0.004109290943234906	0.2431784024496408	-0.5001390056850551	1.595041626064164	1.595041626064282	-0.2505149106445957	-9.561800942467789e-05	0.3700509954846067	0.09211326129249979	-0.1906190686326169	-0.01243107734507234	0.0123175917807857	-0.3217972451845639	0.09581123512971329	-0.00772916891528071	0.2187504086938461	-26.5681144077882	-12.51816106163775	-1.960590037376628	-3.325851116869516	0.9031196887228392	-688.543777990717	57.37563834509582	0.5276575335266559	0.5433471564293832	-0.06933264782039193	-2.021881597461698	-0.0438078847238189	-0.522995442235574	1.812148739655057	-1.901310617667647	-1.90131061765997	0.5423969415870445	0.02909436422811494	-0.5624830734103787	-0.163221695771579	-9.909976553077999e-09	2.017836974732752e-07	1.463022200903977e-06	1.434123183235441e-06	-3.067743452839293e-07	1.054222833773697e-07	4.683089399194157e-07
0.5600000000000001	-0.2550958496272959	-0.01185896084061623	0.8156667929576235	1.015681518297799	-0.2282288626124795	-0.1165145614168808	-0.3691583559260166	0.7957279256215158	0.7957279256214933	0.02042107768611003	0.1744737779515411	0.2082604170148675	0.04311848399414527	-0.5671820739862112	-0.1743168778903805	-0.416295436074567	1.850035565324061	-0.004555589863662615	0.2382970937906551	-0.4818678532837802	1.575363738797875	1.575363738798045	-0.2447853055505306	-6.682628139877329e-05	0.3642643679487041	0.09041147011723499	-0.1980357908662053	-0.0108863819767082	0.01277791531078008	-0.3242540748684343	0.0934266227303194	-0.007403058937581229	0.2249656509934846	-25.58167869599524	-13.52263119318521	-2.103710597575285	-3.17867192175499	1.327956785302239	-693.0758718426546	57.11617223935426	0.5703396297668523	0.5492601522261636	-0.01031997869703638	-2.169735428913627	-0.04684776719829287	-0.4174515314554269	1.843308147820145	-2.034499950175002	-2.034499950174983	0.6286607773778453	-0.04968506410365257	-0.595420255173583	-0.1796633680584834	-8.300128156664613e-09	1.940732248668857e-07	1.395092458584972e-06	1.364736436691384e-06	-2.956883149712775e-07	1.00903890035697e-07	4.764349408494471e-07
0.5700000000000001	-0.2607383597027292	-0.01357458706286338	0.8115042843159302	1.034070994658714	-0.2282766411604349	-0.1141558108761464	-0.3738846310753537	0.811377818632693	0.8113778186325619	0.01800247814497181	0.1744730890169896	0.211872899701541	0.04401368354754	-0.5612472188453198	-0.1688007773057336	-0.4161078121194371	1.82761979482877	-0.004999402705359558	0.2334478628874404	-0.4633555864048521	1.554407365903171	1.554407365903282	-0.2389231835427389	-6.976484696079207e-05	0.3581884879363268	0.08861417220357484	-0.2051786633147252	-0.009439077644368623	0.01312636695864655	-0.3268268369043167	0.09133220961075771	-0.007069576922352347	0.2309243315653182	-24.59482309125707	-14.42619815328499	-2.226098130303152	-3.034644257436472	1.681531929604607	-697.4871016346525	56.89719846281915	0.6159815350211272	0.5538655161405199	0.04809527392859545	-2.313465209682219	-0.04272900664106483	-0.5193927152874687	1.859924484726649	-2.157329111409509	-2.157329111418437	0.5669508119114028	0.02483569844768228	-0.6202630350517742	-0.1815339405300005	-6.854449415938959e-09	1.860163644539677e-07	1.327095287582663e-06	1.29438588318377e-06	-2.840946047522257e-07	9.604988821805609e-08	4.818912573489914e-07
